# xmcd
#
# Track frame offsets:
#	150
#	16984
#	28922
#	46057
#	63697
#	81689
#	103297
#	124409
#	139207
#	161197
#	177727
#	197322
#	215767
#	232302
#
# Disc length: 3290 seconds
#
# Revision: 0
# Processed by: cddbd v1.5.2PL0 Copyright (c) Steve Scherf et al.
# Submitted via: audiograbber 1.83.01
#
DISCID=e10cd80e
DTITLE=Various  - 0311Canzoni d'amore napoletane CD1
DYEAR=1998
DGENRE=Folk
TTITLE0=Roberto Murolo - Accarezzame
TTITLE1=Domenico Modugno - Strada 'nfosa
TTITLE2=Nino d'Angelo - Tu si 'na cosa grande
TTITLE3=Enzo Gragnaniello - Passione
TTITLE4=Paolo Conte - Spassiunatamente
TTITLE5=Mango - Luna rossa
TTITLE6=Alluni del Sole - Tarantè
TTITLE7=Il Giardino dei Semplici - Tu `ca nun chiagne
TTITLE8=Milva - Chiove (Dal vivo)
TTITLE9=Franco Califano - Reginella
TTITLE10=Gabriella Ferri - Lacreme Napulitane
TTITLE11=Enrico Ruggeri - A `canzuncella
TTITLE12=I dik dik - I te vurria vasà
TTITLE13=Mina - Na sera è magio
EXTD=
EXTT0=
EXTT1=
EXTT2=
EXTT3=
EXTT4=
EXTT5=
EXTT6=
EXTT7=
EXTT8=
EXTT9=
EXTT10=
EXTT11=
EXTT12=
EXTT13=
PLAYORDER=
